<svg xmlns="http://www.w3.org/2000/svg" width="1024" height="1024" viewBox="0 0 1024 1024">
  
  <defs>
    <filter id="b1" x="-60%" y="-60%" width="220%" height="220%"><feGaussianBlur stdDeviation="10"/></filter>
    <filter id="b2" x="-90%" y="-90%" width="280%" height="280%"><feGaussianBlur stdDeviation="22"/></filter>
    <linearGradient id="gold" x1="0%" y1="0%" x2="78%" y2="100%">
      <stop offset="0%" stop-color="#F4D789"/>
      <stop offset="48%" stop-color="#E2B65B"/>
      <stop offset="100%" stop-color="#B9893A"/>
    </linearGradient>
    <radialGradient id="glow" cx="50%" cy="42%" r="60%">
      <stop offset="0%" stop-color="rgba(226,182,91,0.16)"/>
      <stop offset="60%" stop-color="rgba(226,182,91,0.05)"/>
      <stop offset="100%" stop-color="rgba(226,182,91,0)"/>
    </radialGradient>
  </defs>
  <rect width="1024" height="1024" rx="225" fill="#060607"/>
  <rect width="1024" height="1024" rx="225" fill="url(#glow)"/>
  
  <circle cx="540" cy="512" r="232" fill="none" stroke="rgba(226,182,91,0.18)" stroke-width="3"/>
  <circle cx="540" cy="512" r="330" fill="none" stroke="rgba(226,182,91,0.10)" stroke-width="3"/>
  <path fill-rule="evenodd" fill="url(#gold)" d="
    M356,244 L520,244 A268,268 0 0 1 520,780 L356,780 Z
    M462,356 L536,356 A156,156 0 0 1 536,668 L462,668 Z"/>
  <line x1="540" y1="512" x2="868" y2="184" stroke="#060607" stroke-width="34" opacity="0.55"/>
  <line x1="540" y1="512" x2="868" y2="184" stroke="#F4D789" stroke-width="26" opacity="0.5" filter="url(#b1)"/>
  <line x1="540" y1="512" x2="868" y2="184" stroke="#F4D789" stroke-width="11"/>
  <circle cx="540" cy="512" r="44" fill="#E2B65B" opacity="0.5" filter="url(#b2)"/>
  <circle cx="540" cy="512" r="27" fill="#F4D789"/>
  <circle cx="787" cy="265" r="40" fill="#5CDD94" opacity="0.4" filter="url(#b1)"/>
  <circle cx="787" cy="265" r="21" fill="#5CDD94"/>
</svg>