<svg xmlns="http://www.w3.org/2000/svg" width="1500" height="500" viewBox="0 0 1500 500">
  
  <defs>
    <linearGradient id="gb" x1="0%" y1="0%" x2="78%" y2="100%">
      <stop offset="0%" stop-color="#F4D789"/>
      <stop offset="48%" stop-color="#E2B65B"/>
      <stop offset="100%" stop-color="#B9893A"/>
    </linearGradient>
    <radialGradient id="glowb" cx="50%" cy="46%" r="58%">
      <stop offset="0%" stop-color="rgba(226,182,91,0.13)"/>
      <stop offset="60%" stop-color="rgba(226,182,91,0.04)"/>
      <stop offset="100%" stop-color="rgba(226,182,91,0)"/>
    </radialGradient>
    <filter id="blb" x="-60%" y="-60%" width="220%" height="220%"><feGaussianBlur stdDeviation="9"/></filter>
  </defs>
  <rect width="1500" height="500" fill="#060607"/>
  <circle cx="1178" cy="248" r="540" fill="url(#glowb)"/>
  <circle cx="1178" cy="248" r="235" fill="none" stroke="rgba(255,255,255,0.045)" stroke-width="1.4"/><circle cx="1178" cy="248" r="323" fill="none" stroke="rgba(255,255,255,0.045)" stroke-width="1.4"/><circle cx="1178" cy="248" r="411" fill="none" stroke="rgba(255,255,255,0.045)" stroke-width="1.4"/><circle cx="1178" cy="248" r="499" fill="none" stroke="rgba(255,255,255,0.045)" stroke-width="1.4"/><circle cx="1178" cy="248" r="587" fill="none" stroke="rgba(255,255,255,0.045)" stroke-width="1.4"/><circle cx="1178" cy="248" r="675" fill="none" stroke="rgba(255,255,255,0.045)" stroke-width="1.4"/>
  <g transform="translate(896.4,-33.60000000000002) scale(0.55)">
  <path d="M150,512 Q512,164 874,512 Q512,860 150,512 Z" fill="none" stroke="url(#gb)" stroke-width="34"/>
  <circle cx="512" cy="512" r="172" fill="none" stroke="#E2B65B" stroke-width="22" opacity="0.55"/>
  <circle cx="512" cy="512" r="86" fill="url(#gb)"/>
  <circle cx="548" cy="476" r="26" fill="#060607" opacity="0.85"/></g>

  <text x="96" y="96" font-family="Geist Mono" font-weight="700" font-size="30" letter-spacing="5" fill="#F4F2EC">DEV<tspan fill="#E2B65B">RADAR</tspan><tspan fill="#5F5D58" font-size="21" font-weight="500">  ·  DEVRADAR.ORG</tspan></text>

  <circle cx="103" cy="171" r="5.5" fill="#E2B65B"/>
  <circle cx="103" cy="171" r="11" fill="#E2B65B" opacity="0.35" filter="url(#blb)"/>
  <text x="126" y="179" font-family="Geist Mono" font-weight="600" font-size="21" letter-spacing="7" fill="#E2B65B">DEPLOYER INTELLIGENCE · SOLANA</text>

  <text x="92" y="286" font-family="Geist Mono" font-weight="600" font-size="78" letter-spacing="-2" fill="#F4F2EC">KNOW THE DEV</text>
  <text x="92" y="378" font-family="Geist Mono" font-weight="600" font-size="78" letter-spacing="-2" fill="#F4F2EC">BEFORE <tspan fill="url(#gb)">YOU APE.</tspan></text>

  <text x="96" y="441" font-family="Geist Mono" font-weight="500" font-size="20" letter-spacing="3" fill="#9C9A93">LAUNCHES · RUGS · BUNDLES · FUNDING <tspan fill="#5F5D58">— ONE DOSSIER, UNDER 2S</tspan></text>
</svg>