<svg xmlns="http://www.w3.org/2000/svg" width="1500" height="500" viewBox="0 0 1500 500">
  
  <defs>
    <filter id="b1b" x="-60%" y="-60%" width="220%" height="220%"><feGaussianBlur stdDeviation="10"/></filter>
    <filter id="b2b" x="-90%" y="-90%" width="280%" height="280%"><feGaussianBlur stdDeviation="22"/></filter>
    <linearGradient id="goldb" x1="0%" y1="0%" x2="78%" y2="100%">
      <stop offset="0%" stop-color="#F4D789"/>
      <stop offset="48%" stop-color="#E2B65B"/>
      <stop offset="100%" stop-color="#B9893A"/>
    </linearGradient>
    <radialGradient id="glowb" cx="50%" cy="42%" r="60%">
      <stop offset="0%" stop-color="rgba(226,182,91,0.16)"/>
      <stop offset="60%" stop-color="rgba(226,182,91,0.05)"/>
      <stop offset="100%" stop-color="rgba(226,182,91,0)"/>
    </radialGradient>
  </defs>
  <rect width="1500" height="500" fill="#060607"/>
  <circle cx="1170" cy="248" r="560" fill="url(#glowb)"/>
  <circle cx="1170" cy="248" r="215" fill="none" stroke="rgba(255,255,255,0.045)" stroke-width="1.4"/><circle cx="1170" cy="248" r="307" fill="none" stroke="rgba(255,255,255,0.045)" stroke-width="1.4"/><circle cx="1170" cy="248" r="399" fill="none" stroke="rgba(255,255,255,0.045)" stroke-width="1.4"/><circle cx="1170" cy="248" r="491" fill="none" stroke="rgba(255,255,255,0.045)" stroke-width="1.4"/><circle cx="1170" cy="248" r="583" fill="none" stroke="rgba(255,255,255,0.045)" stroke-width="1.4"/><circle cx="1170" cy="248" r="675" fill="none" stroke="rgba(255,255,255,0.045)" stroke-width="1.4"/>
  <g transform="translate(900,-8) scale(0.5)">
  <circle cx="540" cy="512" r="232" fill="none" stroke="rgba(226,182,91,0.18)" stroke-width="3"/>
  <circle cx="540" cy="512" r="330" fill="none" stroke="rgba(226,182,91,0.10)" stroke-width="3"/>
  <path fill-rule="evenodd" fill="url(#goldb)" d="
    M356,244 L520,244 A268,268 0 0 1 520,780 L356,780 Z
    M462,356 L536,356 A156,156 0 0 1 536,668 L462,668 Z"/>
  <line x1="540" y1="512" x2="868" y2="184" stroke="#060607" stroke-width="34" opacity="0.55"/>
  <line x1="540" y1="512" x2="868" y2="184" stroke="#F4D789" stroke-width="26" opacity="0.5" filter="url(#b1b)"/>
  <line x1="540" y1="512" x2="868" y2="184" stroke="#F4D789" stroke-width="11"/>
  <circle cx="540" cy="512" r="44" fill="#E2B65B" opacity="0.5" filter="url(#b2b)"/>
  <circle cx="540" cy="512" r="27" fill="#F4D789"/>
  <circle cx="787" cy="265" r="40" fill="#5CDD94" opacity="0.4" filter="url(#b1b)"/>
  <circle cx="787" cy="265" r="21" fill="#5CDD94"/></g>

  <text x="96" y="96" font-family="Geist Mono" font-weight="700" font-size="30" letter-spacing="5" fill="#F4F2EC">DEV<tspan fill="#E2B65B">RADAR</tspan><tspan fill="#5F5D58" font-size="21" font-weight="500">  ·  DEVRADAR.ORG</tspan></text>

  <circle cx="103" cy="171" r="5.5" fill="#E2B65B"/>
  <circle cx="103" cy="171" r="11" fill="#E2B65B" opacity="0.35" filter="url(#b1b)"/>
  <text x="126" y="179" font-family="Geist Mono" font-weight="600" font-size="21" letter-spacing="7" fill="#E2B65B">DEPLOYER INTELLIGENCE · SOLANA</text>

  <text x="92" y="286" font-family="Geist Mono" font-weight="600" font-size="78" letter-spacing="-2" fill="#F4F2EC">KNOW THE DEV</text>
  <text x="92" y="378" font-family="Geist Mono" font-weight="600" font-size="78" letter-spacing="-2" fill="#F4F2EC">BEFORE <tspan fill="url(#goldb)">YOU APE.</tspan></text>

  <text x="96" y="441" font-family="Geist Mono" font-weight="500" font-size="20" letter-spacing="3" fill="#9C9A93">LAUNCHES · RUGS · BUNDLES · FUNDING <tspan fill="#5F5D58">— ONE DOSSIER, UNDER 2S</tspan></text>
</svg>